PathFileType	4	(X/Y/Z)	C:\Users\Basilio\Documents\Thesis Gigler\squatting_fais\c3dfiles\039\SJ_pre2\markers_experimental.trc
DataRate	CameraRate	NumFrames	NumMarkers	Units	OrigDataRate	OrigDataStartFrame	OrigNumFrames
200.000000	200.000000	4	61	mm	200.000000	433	1732
Frame#	Time	FHD			LBHD			RBHD			C7			T10			CLAV			LSHO			LUUPA			LMUPA			LDUPA			LLEP			LMEP			LRAD			LUL			LRFIN			RSHO			RUPA1			RMUPA			RDUPA			RLEP			RMEP			RRAD			RUL			RUFIN			LASI			RASI			USACR			LSACR			RSACR			LTHI1			LTHI2			LTHI3			LTHI4			LLFC			LMFC			LTIB1			LTIB2			LTIB3			LTIB4			LLMAL			LMMAL			LHEE			LMT1			LMT2			LMT5			RTHI			RTHI2			RTHI3			RTHI4			RLFC			RMFC			RTIB1			RTIB2			RTIB3			RTIB4			RLMAL			RMMAL			RHEE			RMT1			RMT2			RMT5			
		X1	Y1	Z1	X2	Y2	Z2	X3	Y3	Z3	X4	Y4	Z4	X5	Y5	Z5	X6	Y6	Z6	X7	Y7	Z7	X8	Y8	Z8	X9	Y9	Z9	X10	Y10	Z10	X11	Y11	Z11	X12	Y12	Z12	X13	Y13	Z13	X14	Y14	Z14	X15	Y15	Z15	X16	Y16	Z16	X17	Y17	Z17	X18	Y18	Z18	X19	Y19	Z19	X20	Y20	Z20	X21	Y21	Z21	X22	Y22	Z22	X23	Y23	Z23	X24	Y24	Z24	X25	Y25	Z25	X26	Y26	Z26	X27	Y27	Z27	X28	Y28	Z28	X29	Y29	Z29	X30	Y30	Z30	X31	Y31	Z31	X32	Y32	Z32	X33	Y33	Z33	X34	Y34	Z34	X35	Y35	Z35	X36	Y36	Z36	X37	Y37	Z37	X38	Y38	Z38	X39	Y39	Z39	X40	Y40	Z40	X41	Y41	Z41	X42	Y42	Z42	X43	Y43	Z43	X44	Y44	Z44	X45	Y45	Z45	X46	Y46	Z46	X47	Y47	Z47	X48	Y48	Z48	X49	Y49	Z49	X50	Y50	Z50	X51	Y51	Z51	X52	Y52	Z52	X53	Y53	Z53	X54	Y54	Z54	X55	Y55	Z55	X56	Y56	Z56	X57	Y57	Z57	X58	Y58	Z58	X59	Y59	Z59	X60	Y60	Z60	X61	Y61	Z61	

434	2.165	-57.41488647460939	1627.413696289063	-839.7520751953127	-201.4233703613282	1576.516235351563	-968.447937011719	-185.5279998779297	1589.40625	-828.2251586914065	-254.3592071533204	1469.56884765625	-907.5098876953127	-394.6304626464845	1185.965087890625	-911.2471313476565	-149.5349578857422	1350.870849609375	-901.8956298828127	-170.4104461669922	1416.917724609375	-1089.111694335938	-286.6967163085938	1326.79638671875	-1263.003295898438	-264.6311035156251	1281.048095703125	-1264.217163085938	-305.7192993164063	1277.125244140625	-1308.51416015625	-324.7300415039063	1215.529907226563	-1339.878295898438	-406.061737060547	1228.642944335938	-1304.126953125	-408.7238159179689	997.413513183594	-1161.713745117188	-363.6760559082032	961.8101806640627	-1211.143188476563	-366.7182617187501	987.838806152344	-1106.692138671875	-170.8581848144532	1406.355102539063	-713.2556762695314	-320.6354064941407	1344.10693359375	-562.3489379882814	-305.2969970703126	1298.261840820313	-548.1607055664064	-355.4009399414063	1304.59326171875	-515.7543945312501	-375.4349365234376	1243.679321289063	-482.4732971191407	-451.0646362304689	1257.082397460938	-529.8273925781251	-391.768280029297	1041.705078125	-700.8386230468751	-391.7928161621095	991.511413574219	-643.7579345703126	-345.2990112304688	1005.969482421875	-747.3653564453126	-306.7439880371094	955.9326782226565	-1026.5810546875	-306.6224975585938	943.8858032226565	-816.785095214844	-462.2146911621095	1067.125	-912.0606689453127	-478.605926513672	1040.148071289063	-940.9614257812502	-481.8984680175782	1039.278930664063	-882.734802246094	-310.1350402832032	721.0362548828126	-1130.417846679688	-248.1360626220704	664.2879638671876	-1142.373657226563	-204.201400756836	685.0993652343751	-1138.4453125	-249.1457672119141	604.0011596679689	-1127.423095703125	-202.2495422363282	504.1780395507814	-1132.970947265625	-160.9585571289063	481.2487182617189	-1023.912048339844	-160.9222717285157	355.9469909667969	-1115.714721679688	-236.9974365234376	332.1287231445313	-1154.968872070313	-200.3117218017579	320.0292358398438	-1136.879516601563	-218.8378906250001	242.4136810302735	-1096.362426757813	-326.5676574707032	97.02735137939456	-1123.772583007813	-302.5912780761719	92.60796356201173	-1038.878173828125	-397.3153076171876	41.24869918823243	-1080.667114257813	-162.3541259765625	55.47931289672853	-1094.728393554688	-173.7041168212891	55.61454391479494	-1136.336791992188	-224.1550750732422	31.91625785827637	-1182.287109375	-301.4985046386719	730.6496582031251	-700.7769165039064	-242.1147155761719	701.5477294921876	-687.8165893554689	-213.7610168457032	717.2525634765626	-695.1653442382814	-230.1432189941407	616.3477172851564	-684.9013061523439	-207.0201873779297	490.5652770996095	-692.9509277343751	-165.8403930664063	479.1336059570314	-800.1906738281252	-200.5687103271485	285.8987426757813	-701.3534545898439	-296.3385925292969	236.9188995361329	-693.5019531250001	-251.9474487304688	220.8505859375001	-693.8806762695314	-242.2636871337891	168.3132781982422	-721.0457763671876	-324.4379882812501	90.70659637451173	-699.8510742187501	-290.3942871093751	98.26047515869143	-784.089294433594	-391.6984863281251	40.29944229125977	-750.1832275390626	-157.9833984375	51.85897064208986	-730.4812622070314	-167.2671966552735	58.98226547241212	-685.6540527343751	-223.5554199218751	31.53811264038087	-638.0287475585939	
435	2.17	-55.83330154418947	1625.29345703125	-839.5408325195315	-200.9601287841797	1574.507568359375	-967.9298095703127	-184.2997741699219	1587.166748046875	-828.1520996093752	-253.0743408203126	1467.943481445313	-907.302429199219	-394.4019165039064	1185.03857421875	-911.2408447265627	-148.4313354492188	1348.821044921875	-902.019470214844	-169.5757141113282	1415.357666015625	-1089.167724609375	-285.1548461914063	1325.4375	-1263.083740234375	-263.2371215820313	1279.76953125	-1264.552490234375	-304.7405395507813	1275.728637695313	-1308.59423828125	-323.8844909667969	1213.89404296875	-1339.8359375	-405.4382629394532	1227.423828125	-1304.289306640625	-408.8953247070314	996.547546386719	-1161.65478515625	-364.2953491210938	960.3258056640627	-1211.005249023438	-367.3488769531251	986.786315917969	-1106.723388671875	-169.6584625244141	1404.572143554688	-713.2874755859376	-319.7075805664063	1342.76171875	-562.2236328125001	-304.2954101562501	1297.041015625	-548.1369018554689	-354.4319458007813	1303.603759765625	-515.8529052734376	-374.5484313964844	1242.411987304688	-482.5889587402345	-450.3460998535157	1256.300415039063	-529.6814575195314	-392.2560119628907	1040.96435546875	-700.8789062500001	-392.1359252929689	990.5437011718752	-643.7770996093751	-345.6627197265626	1004.88720703125	-747.4963989257814	-307.4617614746094	954.7691650390627	-1026.5126953125	-307.1132812500001	942.0889892578127	-816.7042236328127	-462.5695800781251	1066.308959960938	-912.0368652343752	-479.1819152832032	1039.323364257813	-940.947692871094	-482.3978271484376	1038.6103515625	-882.6369628906252	-310.5036010742188	720.3472290039064	-1130.595581054688	-248.3320007324219	663.9346313476564	-1142.49169921875	-204.4478454589844	684.7384033203126	-1138.509399414063	-248.5744018554688	603.2050170898439	-1127.410400390625	-201.9616394042969	503.9751892089845	-1132.963500976563	-160.6895904541016	481.1248168945314	-1023.869750976563	-160.5066070556641	355.6489257812501	-1115.754638671875	-236.6251678466797	332.0483398437501	-1154.990356445313	-200.0279235839844	319.8667907714844	-1136.87451171875	-218.6558532714844	242.3030395507813	-1096.386352539063	-326.4876403808594	96.99514770507815	-1123.792358398438	-302.5251770019532	92.60723114013673	-1038.833618164063	-397.3065185546876	41.28417205810548	-1080.621704101563	-162.4967193603516	55.81729125976564	-1094.561889648438	-173.6414642333985	55.62684249877931	-1136.361694335938	-224.1417083740235	31.94604301452637	-1182.321899414063	-301.7143859863282	730.1130371093751	-700.7236328125001	-242.3354949951172	701.1318359375001	-687.7048950195314	-214.071762084961	716.9080200195314	-695.0809936523439	-230.1129608154297	616.1069335937501	-684.7670898437501	-206.6319732666016	490.3850708007814	-692.8455200195314	-165.4776763916016	478.9786987304689	-800.0360107421877	-200.2861785888672	285.7598876953126	-701.2732543945314	-296.1894226074219	236.9712371826172	-693.4786987304689	-251.8672637939454	220.7558746337891	-693.8311157226564	-242.1598205566407	168.1519165039063	-720.9937744140626	-324.3421936035157	90.67756652832033	-699.8695678710939	-290.3648376464844	98.26438903808597	-784.117126464844	-391.6969604492189	40.28355407714844	-750.1848144531251	-157.947982788086	51.88173675537111	-730.4758300781251	-167.2556762695313	58.95609283447267	-685.6473388671876	-223.5562744140626	31.5333366394043	-638.0509643554689	
436	2.175	-54.19014739990236	1623.130981445313	-839.5784912109377	-199.3310546875001	1572.576904296875	-968.0127563476565	-182.3465881347657	1585.242553710938	-828.3906860351565	-251.8103790283204	1466.48779296875	-907.2971191406252	-394.2549743652345	1184.017822265625	-911.2634277343752	-147.4947052001953	1346.977416992188	-901.9812622070315	-167.8655548095703	1413.105102539063	-1089.10009765625	-284.0049133300782	1324.052856445313	-1263.140991210938	-262.2752990722657	1277.764282226563	-1264.536376953125	-303.4703674316407	1274.1845703125	-1308.841430664063	-323.3998413085938	1212.615600585938	-1339.778198242188	-404.4963989257814	1226.517578125	-1304.453857421875	-409.6558532714845	995.6275634765627	-1161.753051757813	-364.7079772949219	959.1221313476565	-1210.8955078125	-367.7547912597657	985.875671386719	-1106.664916992188	-168.7630462646485	1402.30126953125	-713.5305175781251	-318.6408386230469	1341.517944335938	-562.2404785156251	-303.6542053222657	1295.412475585938	-548.4509277343751	-353.4246520996094	1302.15869140625	-515.7984619140626	-373.8136901855469	1241.32373046875	-482.4268798828126	-449.5767517089845	1255.665283203125	-529.5563354492189	-392.2868957519532	1039.62841796875	-700.8051147460939	-392.7040405273439	989.506530761719	-643.8543090820314	-345.9836120605469	1003.908142089844	-747.3264160156251	-308.2512512207032	953.5014648437502	-1026.537719726563	-307.4443664550782	941.3721313476565	-816.7685546875002	-462.8145446777345	1065.183837890625	-911.842956542969	-479.6881408691407	1038.619262695313	-940.8376464843752	-482.7803039550782	1037.7763671875	-882.6417236328127	-310.6862182617188	719.9483032226564	-1130.704833984375	-248.4889831542969	663.5639038085939	-1142.572875976563	-204.6945343017579	684.4623413085939	-1138.553833007813	-248.4620361328126	602.7229614257814	-1127.528442382813	-201.5950622558594	503.6846313476564	-1133.02685546875	-160.3620300292969	480.9001770019532	-1023.894409179688	-160.1587829589844	355.3945312500001	-1115.795043945313	-236.5984191894532	331.8768615722657	-1154.892578125	-201.1013183593751	318.4104614257813	-1136.58349609375	-218.4588012695313	242.3601531982422	-1096.48583984375	-326.4769592285157	97.00598144531253	-1123.734252929688	-302.5399475097657	92.56798553466798	-1038.810546875	-397.306365966797	41.22684478759766	-1080.583740234375	-162.4574432373047	55.70178604125978	-1094.650512695313	-173.6638641357422	55.60070800781251	-1136.356689453125	-224.1568756103516	31.91512870788575	-1182.324462890625	-301.9308776855469	729.5578002929689	-700.6668701171876	-242.5516967773438	700.7769165039064	-687.6491088867189	-214.3489532470704	716.5773925781251	-695.0343017578126	-229.9491119384766	615.5966796875001	-684.7940673828126	-206.2136230468751	490.2088928222657	-692.6815795898439	-165.2307586669922	478.8002929687501	-799.8963623046877	-200.0928039550782	285.6864929199219	-701.2005615234376	-296.0098266601563	236.9549407958985	-693.4738159179689	-251.7642974853516	220.651351928711	-693.8441772460939	-242.0327301025391	168.0152740478516	-721.0020141601564	-324.3087768554688	90.67583465576173	-699.8795776367189	-290.3218994140626	98.24140930175784	-784.115905761719	-391.6820678710939	40.31497955322266	-750.1992187500001	-157.9573669433594	51.84656524658205	-730.5273437500001	-167.4981079101563	58.63973236083986	-685.7553100585939	-223.5169067382813	31.5416374206543	-638.0410156250001	
437	2.18	-52.35504150390626	1621.29296875	-839.2883300781252	-197.3368072509766	1570.604370117188	-968.0560302734377	-181.11328125	1583.292114257813	-828.1605224609377	-250.3191528320313	1464.723022460938	-907.3041992187502	-393.8494567871095	1183.0986328125	-911.0960693359377	-146.7236022949219	1345.190307617188	-901.9727172851565	-166.8470458984375	1411.611572265625	-1089.192260742188	-283.2312316894532	1322.178588867188	-1263.169189453125	-261.3407287597657	1276.34033203125	-1264.54931640625	-302.6988525390626	1272.786010742188	-1308.795043945313	-322.4381713867188	1211.07568359375	-1340.007202148438	-403.660369873047	1225.466552734375	-1304.6494140625	-410.1245727539064	994.7686157226565	-1161.754760742188	-365.2538757324219	958.1812744140627	-1210.758911132813	-368.2019958496094	984.7734375000002	-1106.72216796875	-167.2850494384766	1400.732055664063	-713.3342285156251	-317.3428955078126	1340.15478515625	-562.2343139648439	-302.5122375488282	1294.13037109375	-548.5366821289064	-352.5281372070313	1301.174560546875	-515.5957641601564	-372.8202819824219	1240.2294921875	-482.6026916503907	-448.693817138672	1254.74267578125	-529.4633178710939	-392.7600708007814	1038.762084960938	-700.8064575195314	-393.0739135742189	988.6199951171877	-643.8505859375001	-346.5411987304688	1002.729309082031	-747.3579101562501	-308.9560852050782	952.2498779296877	-1026.544799804688	-308.2960815429688	940.1938476562502	-816.7910766601565	-463.2126464843751	1064.446044921875	-911.8483886718752	-480.0421142578126	1037.861083984375	-940.8825683593752	-483.1782226562501	1037.027954101563	-882.6240234375002	-311.1324768066407	719.3133544921876	-1130.87939453125	-248.6448822021485	662.9902343750001	-1142.739013671875	-204.8837432861329	684.1610107421876	-1138.72021484375	-248.9128875732422	602.6519165039064	-1127.54296875	-201.1592102050782	503.4825744628907	-1133.0791015625	-159.9091491699219	480.7418823242189	-1023.98583984375	-159.7827911376953	355.1273803710938	-1115.789794921875	-236.4426879882813	331.7608947753907	-1154.8896484375	-200.910629272461	318.2721252441407	-1136.55126953125	-218.1614379882813	242.2145233154297	-1096.50439453125	-326.5183715820313	97.3558044433594	-1123.676513671875	-302.5101928710938	92.57048797607423	-1038.809936523438	-397.2722778320314	41.26660919189454	-1080.56982421875	-162.4497680664063	55.73158264160158	-1094.648803710938	-173.6167755126953	55.61917877197267	-1136.366943359375	-224.2036285400391	31.90876197814942	-1182.33740234375	-302.2496643066407	728.9127807617189	-700.5671997070314	-242.7433471679688	700.4351806640626	-687.5966796875001	-214.6198272705079	716.2141113281251	-694.9567260742189	-230.0188293457032	615.5243530273439	-684.5195922851564	-205.7835235595704	489.9248352050782	-692.4766235351564	-164.8604583740235	478.7164916992189	-799.7649536132815	-199.8425598144532	285.4373168945313	-701.1656494140626	-295.8145446777344	236.9583740234376	-693.4663085937501	-251.5780792236329	220.5656433105469	-693.7310180664064	-241.8729400634766	167.9036102294922	-720.9025878906251	-324.3142395019532	90.67603302001955	-699.8936157226564	-290.2922058105469	98.24820709228518	-784.1484375000002	-391.701873779297	40.2849464416504	-750.2186889648439	-157.9813385009766	51.83152389526369	-730.4705200195314	-167.5006408691407	58.62780380249025	-685.7650146484376	-223.5564575195313	31.53111457824708	-638.0589599609376	
